<?xml version="1.0" standalone="no"?><!DOCTYPE svg PUBLIC "-//W3C//DTD SVG 1.1//EN" "http://www.w3.org/Graphics/SVG/1.1/DTD/svg11.dtd"><svg t="1678953076224" class="icon" viewBox="0 0 1024 1024" version="1.1" xmlns="http://www.w3.org/2000/svg" p-id="3262" xmlns:xlink="http://www.w3.org/1999/xlink" width="200" height="200"><path d="M673.1 630c-12.6 0-17.1 5.4-17.1 5.4l-172 81.9-172-83.7c-5.4-2.7-10.8-3.6-17.1-4.5-21.6-2.7-31.5 12.6-31.5 27.9 0 9.9 6.3 18 14.4 22.5L467 773.2c5.4 2.7 10.8 5.4 17.1 5.4 6.3 0 11.7-1.8 17.1-5.4l189.1-90.9c8.1-5.4 14.4-14.4 14.4-24.3 0-15.4-14.4-28-31.6-28z m0 99.1c-12.6 0-17.1 5.4-17.1 5.4l-172 81.9-172-83.7c-5.4-2.7-10.8-3.6-17.1-4.5-21.6-2.7-31.5 12.6-31.5 27.9 0 9.9 6.3 18 14.4 22.5L467 872.2c5.4 2.7 10.8 5.4 17.1 5.4 6.3 0 11.7-1.8 17.1-5.4l189.1-90.9c8.1-5.4 14.4-14.4 14.4-24.3 0-15.3-14.4-27.9-31.6-27.9z m17.2-196.3l-189.1-93.6c-5.3-2.9-11.1-4.4-17.1-4.5-6.3 0-12.6 1.8-17.1 5.4L277.9 532c-8.1 4.5-14.4 12.6-14.4 22.5s6.3 18 14.4 22.5L467 669.7c5.4 2.7 10.8 5.4 17.1 5.4 6.3 0 11.7-1.8 17.1-5.4l189.1-92.8c8.1-5.4 14.4-12.6 14.4-22.5 0-8.1-6.3-16.2-14.4-21.6z m0 0" fill="#1296DB" p-id="3263"></path><path d="M830.7 334.3c-25.7-109.4-121.4-188-230.4-188-87.4 0-168.3 51.2-208.9 131.2-16.3-5.5-34.1-8.1-54.1-8.1-88.2 0-162.2 66.5-175.4 155.9-85.9 12.6-152 90.6-152 181.4 0 94.9 71.5 175 162.8 182.5l11.7 0.9V730l-9.6-1.1c-59.6-6.5-104.5-59.1-104.5-122.3 0-68.5 53.5-124.2 119.2-124.2H219v-31.5c0.9-67.5 53.5-122.4 117.3-122.4 20 0 38.6 4.9 55.3 14.5l30.7 16.9 12.5-32.7c25.4-72.3 91.9-120.8 165.5-120.8 87.6 0 162.8 68.5 174.9 159.4l3.1 23.7L803 391c85.1 5.6 151.7 80.2 151.7 169.9 0 93.7-72.6 169.9-161.9 169.9h-20.7v59.3h20.7c122 0 221.2-102.8 221.2-229.2 0.2-111.3-78.2-207.4-183.3-226.6z m0 0" fill="#1296DB" p-id="3264"></path></svg>