<?xml version="1.0" standalone="no"?><!DOCTYPE svg PUBLIC "-//W3C//DTD SVG 1.1//EN" "http://www.w3.org/Graphics/SVG/1.1/DTD/svg11.dtd"><svg t="1678860253396" class="icon" viewBox="0 0 1024 1024" version="1.1" xmlns="http://www.w3.org/2000/svg" p-id="1053" xmlns:xlink="http://www.w3.org/1999/xlink" width="200" height="200"><path d="M812.26666667 62.40000031S554.66666698 121.59999969 604.26666636 296c0-1.60000031 259.2-89.59999969 208.00000031-233.59999969z" fill="#ABBD5D" p-id="1054"></path><path d="M487.46666698 132.8h25.59999938s68.80000031 73.60000031 91.2 161.59999969l-22.39999969 12.80000062s9.6-31.99999969-43.2-108.80000062c-33.6-49.60000031-112.00000031-41.59999969-112.00000031-41.59999969s44.80000031-20.80000031 60.80000062-24z" fill="#633609" p-id="1055"></path><path d="M487.46666698 923.19999969s33.6 86.4 169.59999938-6.39999938S908.26666667 646.4 874.66666667 464 636.26666698 281.6 602.66666698 294.39999969c0 0-307.2-150.40000031-432 136.00000031s220.8 507.19999969 220.8 507.19999969 65.59999969 27.19999969 96-14.4z" fill="#EAA283" p-id="1056"></path><path d="M148.26666636 604.80000031c31.99999969 196.8 243.19999969 332.80000031 243.20000062 332.79999938s64.00000031 27.19999969 96-14.4c0 0 33.6 86.4 169.59999938-6.39999938 73.60000031-49.60000031 140.80000031-124.8 182.4-212.80000031-3.19999969-33.6-27.19999969-110.4-115.2-139.2-68.80000031-20.80000031-108.79999969 27.19999969-108.79999969 27.19999969s-54.40000031-103.99999969-273.6-62.4c-103.99999969 19.2-86.4 67.2-193.60000031 75.20000062z" fill="#F28970" p-id="1057"></path><path d="M577.06666667 792.00000031c20.80000031-73.60000031 20.80000031-97.60000031 20.80000031-97.60000031-84.79999969 195.19999969-120 67.2-203.20000031 131.20000031-49.60000031 38.4-144-33.6-168-44.80000031 70.39999969 100.8 164.80000031 155.20000031 164.80000031 155.20000031s64.00000031 27.19999969 96-14.4c0 0 33.6 86.4 169.59999938-6.40000031 38.4-25.60000031 75.19999969-59.20000031 108.80000062-97.60000031-16.00000031-1.60000031-161.59999969 70.39999969-188.80000031-25.59999938zM874.66666667 464c-30.40000031-164.80000031-203.20000031-180.79999969-259.2-172.8-4.8 0-9.6 1.60000031-12.79999969 3.19999969 0 0-267.19999969-132.79999969-406.40000062 86.4 199.99999969-115.2 369.6-55.99999969 404.80000031-11.19999938 22.39999969 28.8 22.39999969 78.40000031 19.2 116.79999938 0 0 24-60.79999969 22.39999969-108.79999969 75.19999969-30.40000031 169.60000031 27.19999969 236.80000031 131.20000031 0-14.4-1.60000031-28.8-4.8-44.80000031z" fill="#DA503E" p-id="1058"></path><path d="M812.26666667 62.40000031s-144 92.80000031-208.00000031 233.59999969c0-1.60000031 259.2-89.59999969 208.00000031-233.59999969z" fill="#96A957" p-id="1059"></path></svg>